REM MD5 c71b4ff96f07535ef4c2f537e8c8a967
FILE "Hyper PlayStation Re-mix 1998 No. 6 (Japan).bin" BINARY
  TRACK 01 MODE2/2352
    INDEX 01 00:00:00
  TRACK 02 AUDIO
    INDEX 00 39:12:42
    INDEX 01 39:15:42
  TRACK 03 AUDIO
    INDEX 00 39:20:17
    INDEX 01 39:23:17
  TRACK 04 AUDIO
    INDEX 00 42:07:43
    INDEX 01 42:11:43
  TRACK 05 AUDIO
    INDEX 00 42:19:08
    INDEX 01 42:24:08
  TRACK 06 AUDIO
    INDEX 00 42:31:42
    INDEX 01 42:37:42
REM LEADOUT 47:03:11
